<svg xmlns="http://www.w3.org/2000/svg" viewBox="0 0 12.44 9.53"><defs><style>.cls-1{stroke:#000;stroke-miterlimit:10;stroke-width:0.27px;}</style></defs><title>email</title><g id="Layer_2" data-name="Layer 2"><g id="Layer_2-2" data-name="Layer 2"><path class="cls-1" d="M10.82.13H1.62A1.49,1.49,0,0,0,.13,1.62V7.91A1.49,1.49,0,0,0,1.62,9.4h9.2a1.49,1.49,0,0,0,1.49-1.49V1.63A1.49,1.49,0,0,0,10.82.13Zm.81,7.78a.81.81,0,0,1-.81.81H1.62a.81.81,0,0,1-.81-.81V1.63A.81.81,0,0,1,1.62.82h9.2a.81.81,0,0,1,.81.81V7.91Z"/><path class="cls-1" d="M7.81,4.69l3.8-3.4a.34.34,0,1,0-.46-.51L6.23,5.2l-.8-.72h0l-.06,0L1.43.91A.34.34,0,0,0,1,1.42L4.67,4.71.74,8.38a.34.34,0,0,0,0,.48A.35.35,0,0,0,1,9a.34.34,0,0,0,.23-.09l4-3.71L6,5.91a.34.34,0,0,0,.45,0l.85-.76,3.91,3.68a.34.34,0,0,0,.48,0,.34.34,0,0,0,0-.48Z"/></g></g></svg>