<svg xmlns="http://www.w3.org/2000/svg" viewBox="0 0 13.35 12.75"><defs><style>.cls-1{stroke:#000;stroke-miterlimit:10;stroke-width:0.27px;}</style></defs><title>house</title><g id="Layer_2" data-name="Layer 2"><g id="Layer_2-2" data-name="Layer 2"><path class="cls-1" d="M13.09,5.77,6.94.26l0,0a.36.36,0,0,0-.49,0L.26,5.73a.36.36,0,0,0,.48.54l1.11-1V11.7a.92.92,0,0,0,.91.91H4.71a.86.86,0,0,0,.86-.86V8.49a.13.13,0,0,1,.13-.13h2a.13.13,0,0,1,.13.13v3.26a.86.86,0,0,0,.86.86h1.94a1,1,0,0,0,.91-1.15V5.32l1.11,1a.37.37,0,0,0,.51,0A.37.37,0,0,0,13.09,5.77ZM10.77,7.56v3.9c0,.26-.13.42-.19.42H8.64a.13.13,0,0,1-.13-.13V8.49a.86.86,0,0,0-.86-.86h-2a.86.86,0,0,0-.86.86v3.26a.13.13,0,0,1-.13.13H2.76a.19.19,0,0,1-.19-.19V4.63L6.66,1l4.12,3.68V7.56Z"/></g></g></svg>