<svg xmlns="http://www.w3.org/2000/svg" viewBox="0 0 12.17 12.17"><title>insta</title><g id="Layer_2" data-name="Layer 2"><g id="Layer_2-2" data-name="Layer 2"><path d="M8.71,12.17H3.47A3.47,3.47,0,0,1,0,8.71V3.47A3.47,3.47,0,0,1,3.47,0H8.71a3.47,3.47,0,0,1,3.47,3.47V8.71A3.47,3.47,0,0,1,8.71,12.17ZM3.47,1A2.42,2.42,0,0,0,1,3.47V8.71a2.42,2.42,0,0,0,2.42,2.42H8.71a2.42,2.42,0,0,0,2.42-2.42V3.47A2.42,2.42,0,0,0,8.71,1Z"/><path d="M6.09,9.2A3.12,3.12,0,1,1,9.2,6.09,3.12,3.12,0,0,1,6.09,9.2ZM6.09,4A2.07,2.07,0,1,0,8.16,6.09,2.08,2.08,0,0,0,6.09,4Z"/><circle cx="9.34" cy="2.79" r="0.75"/></g></g></svg>