<svg xmlns="http://www.w3.org/2000/svg" viewBox="0 0 36.8 33.88"><defs><style>.cls-1{fill:none;}.cls-2{fill:#3953a3;}.cls-3{fill:#fff;}</style></defs><title>LogoWhite</title><g id="Layer_2" data-name="Layer 2"><g id="Layer_1-2" data-name="Layer 1"><path class="cls-1" d="M15.76,25l-.86-.73A5.39,5.39,0,0,1,13,20.48l-.27-1.66L5.5,21.55a5.33,5.33,0,0,0-.68.33A5.25,5.25,0,0,0,10.07,31a5.32,5.32,0,0,0,.69-.47l5.9-4.83-.89-.73Z"/><path class="cls-1" d="M23.93,20l-.2,1.09a5.39,5.39,0,0,1-2.07,3.36l-1.54,1.26,6,4.88a5.33,5.33,0,0,0,.63.42A5.25,5.25,0,0,0,32,21.88a5.31,5.31,0,0,0-.75-.36L24.1,18.83,23.91,20Z"/><path class="cls-1" d="M15.47,15.41l.85-.31a5.4,5.4,0,0,1,1.87-.41h.42a5.4,5.4,0,0,1,1.86.41l.63.23h0l1.27.48L23.61,8.2a5.32,5.32,0,0,0,.05-.75,5.25,5.25,0,1,0-10.5,0,5.31,5.31,0,0,0,.07.83l1.23,7.53,1-.39Z"/><path class="cls-2" d="M17.36,17.06a3.2,3.2,0,0,1,.95-.17,3.21,3.21,0,0,0-1.24.28l.27-.1Z"/><path class="cls-2" d="M18.26,14.69h0Z"/><path class="cls-2" d="M18.39,14.69h0Z"/><path class="cls-2" d="M18.5,16.89h0Z"/><path class="cls-2" d="M18.34,16.89h0Z"/><path class="cls-2" d="M18.41,16.89h0Z"/><path class="cls-2" d="M18.6,14.7h0Z"/><path class="cls-2" d="M16.57,15a5.4,5.4,0,0,1,1.61-.32,5.4,5.4,0,0,0-1.87.41Z"/><path class="cls-2" d="M18.26,14.69h0Z"/><path class="cls-2" d="M19.49,17.08l.22.08a3.21,3.21,0,0,0-1.2-.28,3.2,3.2,0,0,1,1,.19Z"/><path class="cls-2" d="M18.31,16.89h0Z"/><path class="cls-3" d="M18.41,0a7.45,7.45,0,0,0-7.35,8.63l1.3,8,2.1-.79L13.23,8.28a5.31,5.31,0,0,1-.07-.83,5.25,5.25,0,1,1,10.5,0,5.32,5.32,0,0,1-.05.75l-1.25,7.62-.08.51L22,18l-.43,2.65v0a3.2,3.2,0,0,1-1.24,2L18.4,24.26l1.33,1.09.4.33,1.54-1.26a5.39,5.39,0,0,0,2.07-3.36l.18-1.1.19-1.13.36-2.21,1.13-6.9h0l.17-1.09A7.45,7.45,0,0,0,18.41,0Z"/><path class="cls-3" d="M21.09,15.34l-.63-.24L20.22,15a5.4,5.4,0,0,0-1.62-.32h-.42a5.4,5.4,0,0,0-1.61.32l-.25.09-.84.32-1,.39-2.1.79-6.5,2.46h0l-1.07.41A7.45,7.45,0,0,0,1,30.15a7.4,7.4,0,0,0,4.52,3.47,7.49,7.49,0,0,0,1.94.26,7.4,7.4,0,0,0,3.71-1,7.53,7.53,0,0,0,1-.67l6.25-5.11-1.73-1.42-5.9,4.83a5.32,5.32,0,0,1-.69.47,5.25,5.25,0,0,1-5.25-9.1,5.33,5.33,0,0,1,.68-.33l7.22-2.73.46-.17L14.82,18l2.25-.85a3.21,3.21,0,0,1,1.24-.28h.2a3.21,3.21,0,0,1,1.2.28L22,18l.28-1.7.08-.51Z"/><path class="cls-3" d="M36.54,24.5A7.4,7.4,0,0,0,33.07,20,7.53,7.53,0,0,0,32,19.47l-7.54-2.85-.36,2.21,7.12,2.69a5.31,5.31,0,0,1,.75.36A5.25,5.25,0,0,1,26.72,31a5.33,5.33,0,0,1-.63-.42l-6-4.88-.4-.33L18.4,24.26l-2.1-1.71,0,0a3.44,3.44,0,0,1-1.1-2.29L14.82,18l-1.64.62-.46.17L13,20.48a5.73,5.73,0,0,0,1.9,3.75l.87.71.89.73,1.73,1.42,5.41,4.42h0l.85.69a7.52,7.52,0,0,0,1,.67,7.4,7.4,0,0,0,3.71,1,7.49,7.49,0,0,0,1.94-.26,7.45,7.45,0,0,0,5.27-9.12Z"/></g></g></svg>